<svg xmlns="http://www.w3.org/2000/svg" id="Calque_1" data-name="Calque 1" viewBox="0 0 1000 500"><defs><style>      .cls-1, .cls-2 {        fill: #fff;        stroke-width: 0px;      }      .cls-2 {        fill-rule: evenodd;      }    </style></defs><path class="cls-2" d="m285.45,133.85v127.27c0,70.43-57.61,129.18-128.04,129.31-70.71.14-128.58-57.65-128.58-128.29h0c0-70.85,57.44-128.29,128.29-128.29h128.33Zm-174.4,128.29c0-25.36,20.74-46.1,46.1-46.1s46.1,20.74,46.1,46.1c0,12.7-5.2,24.2-13.54,32.57l20.35,20.35c4.91,4.91,13.05,4.35,17.18-1.22,10.73-14.49,17.1-32.39,17.1-51.69,0-47.98-39.25-87.2-87.2-87.2s-87.23,39.22-87.23,87.2c0,19.31,6.37,37.21,17.1,51.7,4.13,5.57,12.27,6.13,17.18,1.23l20.38-20.36c-8.37-8.37-13.54-19.87-13.54-32.57h0Z"></path><g><path class="cls-1" d="m576.9,317.96h-14.73v-108.74h14.73v108.74Z"></path><path class="cls-1" d="m673.92,305.61v12.37h-61.7v-108.74h14.65v96.38h47.05Z"></path><path class="cls-1" d="m891.17,319.19c-7.18-2.93-13.35-7.03-18.49-12.34-5.15-5.3-9.13-11.62-11.94-18.97-2.82-7.35-4.23-15.43-4.23-24.22s1.41-16.88,4.23-24.22c2.81-7.35,6.79-13.69,11.94-19.02,5.14-5.33,11.3-9.47,18.49-12.42l6.56,12.53c-5.21,2.14-9.64,5.18-13.32,9.15-3.68,3.96-6.51,8.81-8.5,14.55-1.99,5.74-2.98,12.21-2.98,19.43s.99,13.68,2.98,19.38c1.99,5.71,4.83,10.54,8.5,14.51,3.68,3.96,8.11,6.99,13.32,9.09l-6.56,12.54Zm41.3-12.54c5.2-2.1,9.61-5.14,13.27-9.09,3.64-3.97,6.47-8.81,8.46-14.51,1.99-5.71,2.98-12.18,2.98-19.38s-.99-13.69-2.98-19.43c-1.99-5.74-4.81-10.59-8.46-14.55-3.66-3.97-8.07-7.01-13.27-9.15l6.51-12.53c7.21,2.95,13.39,7.09,18.54,12.42,5.14,5.33,9.12,11.66,11.94,19.02,2.82,7.34,4.22,15.41,4.22,24.22s-1.4,16.87-4.22,24.22c-2.82,7.35-6.8,13.68-11.94,18.97-5.15,5.31-11.33,9.41-18.54,12.34l-6.51-12.54Z"></path><path class="cls-1" d="m398.36,226.21c-.45.76-.95,1.32-1.48,1.7-.53.38-1.18.57-1.94.57-.86,0-1.87-.43-3.03-1.29-1.16-.86-2.63-1.81-4.37-2.85-1.74-1.04-3.84-1.98-6.29-2.85-2.46-.86-5.43-1.28-8.92-1.28-3.28,0-6.18.44-8.68,1.32-2.51.89-4.6,2.09-6.3,3.61-1.7,1.51-2.97,3.29-3.83,5.35-.87,2.04-1.29,4.27-1.29,6.64,0,3.04.74,5.56,2.23,7.55,1.49,2,3.46,3.71,5.92,5.12,2.46,1.42,5.24,2.65,8.35,3.68,3.11,1.04,6.3,2.11,9.56,3.22,3.26,1.12,6.45,2.37,9.56,3.76,3.11,1.4,5.9,3.15,8.35,5.27,2.45,2.13,4.43,4.73,5.92,7.82,1.49,3.08,2.23,6.88,2.23,11.38,0,4.75-.8,9.22-2.42,13.39-1.62,4.17-3.99,7.8-7.09,10.89-3.11,3.08-6.93,5.52-11.46,7.28-4.53,1.77-9.68,2.66-15.43,2.66-7.09,0-13.51-1.28-19.28-3.83-5.77-2.56-10.7-6.01-14.8-10.36l4.24-6.98c.41-.56.9-1.03,1.48-1.41.58-.38,1.23-.57,1.94-.57.66,0,1.41.28,2.24.81.83.53,1.78,1.2,2.84,2.01,1.07.81,2.28,1.69,3.64,2.66,1.37.95,2.92,1.84,4.67,2.65,1.75.82,3.74,1.48,5.96,2.01,2.22.54,4.73.81,7.52.81,3.48,0,6.6-.49,9.33-1.45,2.73-.95,5.05-2.31,6.95-4.05,1.89-1.75,3.36-3.83,4.36-6.26,1.02-2.43,1.52-5.13,1.52-8.12,0-3.29-.75-5.98-2.24-8.09-1.49-2.1-3.45-3.85-5.88-5.27-2.43-1.42-5.22-2.61-8.35-3.6-3.13-1-6.32-2-9.56-3.04-3.24-1.04-6.43-2.24-9.56-3.61-3.14-1.37-5.92-3.13-8.35-5.3-2.42-2.18-4.38-4.9-5.87-8.16-1.49-3.26-2.24-7.29-2.24-12.1,0-3.84.75-7.57,2.24-11.16,1.49-3.59,3.66-6.78,6.52-9.56,2.86-2.78,6.37-5.01,10.56-6.68,4.17-1.67,8.97-2.5,14.38-2.5,6.07,0,11.59.95,16.58,2.88,4.99,1.93,9.37,4.7,13.17,8.34l-3.57,6.99Z"></path><path class="cls-1" d="m476.2,259.89c1.99,1.34,2.79,2.21,3.9,3.1,1.11.88,2.2,2.03,3.26,3.45l43.26,51.52h-12.75c-.96,0-1.78-.06-2.46-.19-.69-.13-1.28-.33-1.78-.6-.51-.27-.95-.61-1.33-.98-.38-.38-.75-.83-1.1-1.33l-37.49-43.17c-1.01-1.27-2.1-2.17-3.27-2.7-1.16-.53-2.93-.79-5.31-.79h-6.68v49.78h-14.65v-108.74h14.65v47.66h5.54c1.92,0,5.65-.02,9.35.9,3.7.92,6.86,2.11,6.86,2.11Zm4.76-21.02l23.05-26.16c1.01-1.31,2.08-2.22,3.19-2.73,1.11-.51,2.48-.76,4.1-.76h12.44l-33.63,38.01"></path><path class="cls-1" d="m771,305.61v12.37h-61.7v-108.74h14.65v96.38h47.05Z"></path><path class="cls-1" d="m821,317.97h-14.73v-108.74h14.73v108.74Z"></path></g></svg>